<svg width="256" height="256" viewBox="0 0 256 256" fill="none" xmlns="http://www.w3.org/2000/svg">
<path d="M127.999 0.634888C180.799 0.634888 223.602 43.4378 223.602 96.2379C223.602 149.038 180.799 191.841 127.999 191.841C75.1994 191.841 32.3965 149.038 32.3965 96.2379C32.3965 43.4378 75.1994 0.634888 127.999 0.634888Z" fill="url(#paint0_radial_507_3499)"/>
<path d="M111.61 1.70942C91.8545 5.13969 75.2114 13.5248 61.4268 26.9918C47.261 40.8399 38.4947 56.9749 34.2387 77.1119L32.7776 83.9724L32.5871 169.856L32.3965 255.804H34.1751C35.1915 255.804 38.4312 255.486 41.3533 255.168C66.3181 252.119 87.5349 237.001 99.0962 214.069C102.018 208.225 104.115 201.491 105.576 193.106C106.783 185.991 106.846 183.641 106.656 146.543L106.465 107.476L107.99 103.665C110.086 98.4558 115.866 92.6752 121.075 90.5789L124.887 89.0543L160.46 88.9908C180.025 88.9908 197.177 88.7367 198.511 88.4826C204.736 87.2757 211.406 82.0667 214.074 76.2861C214.836 74.698 215.853 71.5853 216.297 69.4891C216.996 65.9953 216.932 65.0424 215.916 61.104C212.74 49.4156 201.56 33.2171 190.125 23.7521C177.167 13.0166 162.874 5.83845 147.438 2.21761C139.307 0.375421 120.885 0.0578046 111.61 1.70942Z" fill="url(#paint1_radial_507_3499)"/>
<defs>
<radialGradient id="paint0_radial_507_3499" cx="0" cy="0" r="1" gradientUnits="userSpaceOnUse" gradientTransform="translate(183.699 24.2587) scale(185.45)">
<stop stop-color="#2440E6"/>
<stop offset="1" stop-color="#5661B3"/>
</radialGradient>
<radialGradient id="paint1_radial_507_3499" cx="0" cy="0" r="1" gradientUnits="userSpaceOnUse" gradientTransform="translate(-35.6587 229.457) rotate(-53.345) scale(91.0645 144.726)">
<stop stop-color="#6574CD" stop-opacity="0.5"/>
<stop offset="1" stop-color="#6574CD"/>
</radialGradient>
</defs>
</svg>
